# xmcd
#
# Track frame offsets: 
#        150
#        16831
#        33717
#        49097
#        61187
#        80411
#        100245
#        113867
#        132099
#        150152
#        166374
#        197789
#        213681
#        232366
#        248597
#        263061
#        285826
#
# Disc length: 4080 seconds
#
# Revision: 11
# Processed by: cddbd v1.5.2PL0 Copyright (c) Steve Scherf et al.
# Submitted via: ExactAudioCopy v1.0b3
#
DISCID=e20fee11
DTITLE=Rihanna - Unapologetic
DYEAR=2012
DGENRE=Pop
TTITLE0=Fresh off the runway
TTITLE1=Diamonds
TTITLE2=Rihanna - Eminem - Numb
TTITLE3=Pour it up
TTITLE4=Rihanna - Future - Loveeeeeee song
TTITLE5=Jump
TTITLE6=Rihanna - David Guetta - Right now
TTITLE7=What now
TTITLE8=Rihanna - Mikky Ekko - Stay
TTITLE9=Rihanna - Chris Brown - Nobody's business
TTITLE10=Love without tragedy - Mother Mary
TTITLE11=Get ot over with
TTITLE12=No love allowed
TTITLE13=Lost in paradise
TTITLE14=Half of me
TTITLE15=Diamonds [Dave Audé 100 extended]
TTITLE16=Diamonds
EXTD=Unapologetic (Limited Deluxe Edition) [CD+DVD] YEAR: 2012
EXTT0=
EXTT1=
EXTT2=
EXTT3=
EXTT4=
EXTT5=
EXTT6=
EXTT7=
EXTT8=
EXTT9=
EXTT10=
EXTT11=
EXTT12=
EXTT13=
EXTT14=
EXTT15=
EXTT16=
PLAYORDER=
